<mxfile host="app.diagrams.net" modified="2023-09-18T13:21:26.694Z" agent="Mozilla/5.0 (Macintosh; Intel Mac OS X 10_15_7) AppleWebKit/605.1.15 (KHTML, like Gecko) Version/16.6 Safari/605.1.15" version="21.7.5" etag="OQFqSzSO7Ucd-oQL4eNi" type="github">
  <diagram name="페이지-1" id="vMsP7dgIOrkCSgZuiiE8">
    <mxGraphModel>
      <root>
        <mxCell id="0" />
        <mxCell id="1" parent="0" />
      </root>
    </mxGraphModel>
  </diagram>
</mxfile>
